<?xml version="1.0" encoding="UTF-8"?>
<svg id="Layer_1" data-name="Layer 1" xmlns="http://www.w3.org/2000/svg" viewBox="0 0 256 256">
  <defs>
    <style>
      .cls-1 {
        fill: #d74545;
      }
    </style>
  </defs>
  <path class="cls-1" d="M128.51,90.5c-20.71,0-37.5,16.79-37.5,37.5s16.79,37.5,37.5,37.5,37.5-16.79,37.5-37.5-16.79-37.5-37.5-37.5ZM128.51,153c-13.81,0-25-11.19-25-25s11.19-25,25-25,25,11.19,25,25-11.19,25-25,25Z"/>
  <path class="cls-1" d="M128.51,50.5c-42.8,0-77.5,34.7-77.5,77.5s34.7,77.5,77.5,77.5,77.5-34.7,77.5-77.5-34.7-77.5-77.5-77.5ZM179.02,155.5c-9.75,17.87-28.71,30-50.51,30s-40.75-12.13-50.51-30h-11.13c-3.75-8.4-5.86-17.7-5.86-27.5s2.1-19.1,5.86-27.5h11.13c9.75-17.87,28.71-30,50.51-30s40.76,12.13,50.51,30h11.13c3.75,8.4,5.86,17.7,5.86,27.5s-2.1,19.1-5.86,27.5h-11.13Z"/>
  <path class="cls-1" d="M218.51,128c0,11.03-1.99,21.59-5.62,31.35l9.6,9.6c5.47-12.54,8.52-26.39,8.52-40.95s-3.04-28.41-8.52-40.95l-9.6,9.6c3.63,9.76,5.62,20.32,5.62,31.35Z"/>
  <path class="cls-1" d="M44.13,96.65l-9.6-9.6c-5.47,12.54-8.52,26.39-8.52,40.95s3.04,28.41,8.52,40.95l9.6-9.6c-3.63-9.76-5.62-20.32-5.62-31.35s1.99-21.59,5.62-31.35Z"/>
  <path class="cls-1" d="M97.16,43.62c9.76-3.63,20.32-5.62,31.35-5.62s21.59,1.99,31.35,5.62l9.6-9.6c-12.54-5.47-26.39-8.52-40.95-8.52s-28.41,3.04-40.95,8.52l9.6,9.6Z"/>
  <path class="cls-1" d="M159.87,212.38c-9.76,3.63-20.32,5.62-31.35,5.62s-21.59-1.99-31.35-5.62l-9.6,9.6c12.54,5.47,26.39,8.52,40.95,8.52s28.41-3.04,40.95-8.52l-9.6-9.6Z"/>
  <polygon class="cls-1" points="217.48 39.03 189.18 46.62 209.9 67.33 217.48 39.03"/>
  <polygon class="cls-1" points="39.55 39.03 47.13 67.33 67.85 46.62 39.55 39.03"/>
  <polygon class="cls-1" points="39.55 216.97 67.85 209.38 47.13 188.67 39.55 216.97"/>
  <polygon class="cls-1" points="217.48 216.97 209.9 188.67 189.18 209.38 217.48 216.97"/>
</svg>