<?xml version="1.0" encoding="UTF-8"?>
<svg id="Layer_1" data-name="Layer 1" xmlns="http://www.w3.org/2000/svg" viewBox="0 0 256 256">
  <defs>
    <style>
      .cls-1 {
        fill: #939497;
      }
    </style>
  </defs>
  <path class="cls-1" d="M128,61.6l-57.5,33.2v66.4l57.5,33.2,57.5-33.2v-66.4l-57.5-33.2ZM175.5,155.42l-47.5,27.42-47.5-27.42v-54.85l47.5-27.42,47.5,27.42v54.85Z"/>
  <path class="cls-1" d="M128,34.18l-81.25,46.91v93.82l81.25,46.91,81.25-46.91v-93.82l-81.25-46.91ZM195.12,166.75l-67.12,38.75-67.12-38.75v-77.5l67.12-38.75,67.12,38.75v77.5Z"/>
  <path class="cls-1" d="M138,11.95c0-5.52-4.48-10-10-10s-10,4.48-10,10c0,4.02,2.38,7.48,5.8,9.07v29.43h8.48v-29.47c3.38-1.61,5.72-5.04,5.72-9.03Z"/>
  <path class="cls-1" d="M223.5,194.68c4.78,2.76,10.9,1.12,13.66-3.66s1.12-10.9-3.66-13.66c-3.48-2.01-7.67-1.68-10.75.49l-25.49-14.72-4.24,7.35,25.53,14.74c-.3,3.73,1.51,7.47,4.96,9.46Z"/>
  <path class="cls-1" d="M233.5,78.64c4.78-2.76,6.42-8.88,3.66-13.66-2.76-4.78-8.88-6.42-13.66-3.66-3.48,2.01-5.29,5.8-4.95,9.56l-25.49,14.72,4.24,7.35,25.53-14.74c3.08,2.12,7.22,2.43,10.67.44Z"/>
  <path class="cls-1" d="M118,244.05c0,5.52,4.48,10,10,10,5.52,0,10-4.48,10-10,0-4.02-2.38-7.48-5.8-9.07v-29.43s-8.48,0-8.48,0v29.47c-3.38,1.61-5.72,5.04-5.72,9.03Z"/>
  <path class="cls-1" d="M32.5,61.32c-4.78-2.76-10.9-1.12-13.66,3.66s-1.12,10.9,3.66,13.66c3.48,2.01,7.67,1.68,10.75-.49l25.49,14.72,4.24-7.35-25.53-14.74c.3-3.73-1.51-7.47-4.96-9.46Z"/>
  <path class="cls-1" d="M22.78,177.41c-4.78,2.76-6.42,8.88-3.66,13.66,2.76,4.78,8.88,6.42,13.66,3.66,3.48-2.01,5.29-5.8,4.95-9.56l25.49-14.72-4.24-7.35-25.53,14.74c-3.08-2.12-7.22-2.43-10.67-.44Z"/>
</svg>