<?xml version="1.0" encoding="UTF-8"?>
<svg id="Layer_1" data-name="Layer 1" xmlns="http://www.w3.org/2000/svg" viewBox="0 0 256 256">
  <defs>
    <style>
      .cls-1 {
        fill: #fff;
      }
    </style>
  </defs>
  <path class="cls-1" d="M195.49,208.43c-4.67,3.92-9.68,7.44-14.98,10.51l10,17.32c6.32-3.66,12.28-7.85,17.84-12.52l-12.86-15.32Z"/>
  <path class="cls-1" d="M233,128h20c0-7.4-.65-14.66-1.88-21.71l-19.7,3.47c1.04,5.92,1.58,12.02,1.58,18.24Z"/>
  <path class="cls-1" d="M218.95,180.51c-3.07,5.31-6.59,10.32-10.51,14.98l15.32,12.86c4.67-5.56,8.86-11.52,12.52-17.84l-17.32-10Z"/>
  <path class="cls-1" d="M170.76,245.49l-6.84-18.8c-5.68,2.07-11.59,3.66-17.69,4.73l3.47,19.7c7.25-1.27,14.29-3.16,21.05-5.63Z"/>
  <path class="cls-1" d="M128,233c-57.99,0-105-47.01-105-105S70.01,23,128,23c19.13,0,37.06,5.12,52.51,14.05l10-17.32c-18.39-10.64-39.74-16.73-62.51-16.73C58.96,3,3,58.96,3,128s55.96,125,125,125v-20Z"/>
  <path class="cls-1" d="M226.69,92.08l18.8-6.84c-2.51-6.88-5.6-13.49-9.22-19.75l-17.32,10c3.04,5.26,5.64,10.8,7.75,16.59Z"/>
  <path class="cls-1" d="M231.42,146.24c-1.07,6.09-2.66,12-4.73,17.69l18.8,6.84c2.46-6.76,4.36-13.8,5.63-21.05l-19.7-3.47Z"/>
  <polygon class="cls-1" points="196.46 6.62 168.84 48.09 218.57 51.28 196.46 6.62"/>
</svg>